<mxfile host="app.diagrams.net" modified="2024-05-22T13:57:51.567Z" agent="Mozilla/5.0 (Macintosh; Intel Mac OS X 10_15_7) AppleWebKit/537.36 (KHTML, like Gecko) Chrome/118.0.0.0 Safari/537.36" etag="CBIVaynqwnp5mY8CcztU" version="24.4.6" type="device">
  <diagram name="페이지-1" id="vwO_KQJeFnZF6xD4YGcY">
    <mxGraphModel dx="792" dy="984" grid="1" gridSize="10" guides="1" tooltips="1" connect="1" arrows="1" fold="1" page="1" pageScale="1" pageWidth="827" pageHeight="1169" math="0" shadow="0">
      <root>
        <mxCell id="0" />
        <mxCell id="1" parent="0" />
        <mxCell id="CqR2AaH4hSOGVCZl1eH8-1" value="&lt;div&gt;&lt;span style=&quot;background-color: initial;&quot;&gt;ReadController&lt;/span&gt;&lt;br&gt;&lt;/div&gt;" style="rounded=0;whiteSpace=wrap;html=1;" parent="1" vertex="1">
          <mxGeometry x="330" y="490" width="120" height="35" as="geometry" />
        </mxCell>
        <mxCell id="CqR2AaH4hSOGVCZl1eH8-2" value="mainMenu()" style="rounded=0;whiteSpace=wrap;html=1;" parent="1" vertex="1">
          <mxGeometry x="330" y="540" width="120" height="20" as="geometry" />
        </mxCell>
        <mxCell id="CqR2AaH4hSOGVCZl1eH8-3" value="&lt;div&gt;&lt;span style=&quot;background-color: initial;&quot;&gt;Pop3Agent&lt;/span&gt;&lt;br&gt;&lt;/div&gt;" style="rounded=0;whiteSpace=wrap;html=1;" parent="1" vertex="1">
          <mxGeometry x="540" y="490" width="120" height="28" as="geometry" />
        </mxCell>
        <mxCell id="CqR2AaH4hSOGVCZl1eH8-4" value="getMessageList&lt;div&gt;getMessageCount&lt;/div&gt;" style="rounded=0;whiteSpace=wrap;html=1;" parent="1" vertex="1">
          <mxGeometry x="540" y="523" width="120" height="40" as="geometry" />
        </mxCell>
        <mxCell id="CqR2AaH4hSOGVCZl1eH8-5" value="deletedMailsService" style="rounded=0;whiteSpace=wrap;html=1;" parent="1" vertex="1">
          <mxGeometry x="330" y="525" width="120" height="15" as="geometry" />
        </mxCell>
        <mxCell id="CqR2AaH4hSOGVCZl1eH8-6" value="" style="endArrow=none;html=1;rounded=0;entryX=0;entryY=0.25;entryDx=0;entryDy=0;exitX=1;exitY=0.5;exitDx=0;exitDy=0;" parent="1" source="CqR2AaH4hSOGVCZl1eH8-5" target="CqR2AaH4hSOGVCZl1eH8-4" edge="1">
          <mxGeometry width="50" height="50" relative="1" as="geometry">
            <mxPoint x="440" y="680" as="sourcePoint" />
            <mxPoint x="490" y="630" as="targetPoint" />
          </mxGeometry>
        </mxCell>
        <mxCell id="CqR2AaH4hSOGVCZl1eH8-7" value="" style="rounded=0;whiteSpace=wrap;html=1;" parent="1" vertex="1">
          <mxGeometry x="540" y="518" width="120" height="5" as="geometry" />
        </mxCell>
      </root>
    </mxGraphModel>
  </diagram>
</mxfile>
